<svg width="398" height="398" viewBox="0 0 398 398" fill="none" xmlns="http://www.w3.org/2000/svg">
<rect x="0.157227" y="0.157227" width="397.686" height="397.686" rx="94" fill="#474DFF"/>
<path d="M237.536 129.479C245.973 121.043 259.71 121.043 268.148 129.479C276.585 137.915 276.585 151.65 268.148 160.086C263.26 164.972 256.572 167.184 249.781 166.207C249.472 166.156 249.112 166.156 248.803 166.207C246.797 165.95 244.687 166.207 242.681 167.133C239.851 168.419 237.844 170.785 236.867 173.512C235.889 176.186 235.941 179.221 237.227 181.948C244.481 197.637 241.137 216.412 228.892 228.655C216.647 240.898 197.869 244.241 182.177 236.988C179.347 235.702 176.311 235.651 173.585 236.68C170.909 237.657 168.646 239.663 167.359 242.441C166.536 244.241 166.227 246.093 166.33 247.945C166.279 248.305 166.279 248.665 166.33 249.025C167.462 255.918 165.198 262.965 160.259 267.904C151.822 276.34 138.085 276.34 129.647 267.904C125.531 263.788 123.319 258.387 123.319 252.575C123.319 246.813 125.583 241.361 129.647 237.245C134.535 232.359 141.223 230.147 148.014 231.124C148.117 231.124 148.22 231.124 148.375 231.124C149.095 231.278 149.815 231.381 150.587 231.381C152.182 231.381 153.777 231.073 155.269 230.353C158.047 229.067 160.002 226.803 161.031 224.18C162.06 221.453 162.06 218.367 160.722 215.538C153.468 199.849 156.812 181.073 169.057 168.83C181.302 156.588 200.081 153.244 215.773 160.497C218.551 161.783 221.638 161.835 224.313 160.857C226.989 159.88 229.304 157.874 230.59 155.096C231.568 152.936 231.825 150.621 231.465 148.409V148.357C230.333 141.464 232.597 134.417 237.536 129.479ZM216.133 215.898C225.497 206.536 225.497 191.361 216.133 181.999C206.769 172.637 191.592 172.637 182.228 181.999C172.864 191.361 172.864 206.536 182.228 215.898C191.592 225.26 206.769 225.26 216.133 215.898ZM199 54.1196C279.004 54.1196 343.881 118.985 343.881 198.974C343.881 278.963 279.055 343.88 199 343.88C118.946 343.88 54.1201 279.015 54.1201 198.974C54.1201 118.934 118.997 54.1196 199 54.1196ZM276.225 168.162C289.036 155.353 289.036 134.623 276.225 121.814C263.415 109.006 242.681 109.006 229.87 121.814C225.137 126.547 222.152 132.411 220.918 138.532C197.714 129.788 171.064 135.343 153.314 153.09C135.564 170.837 130.007 197.482 138.805 220.733C132.631 221.968 126.766 224.951 121.981 229.735C109.171 242.544 109.171 263.274 121.981 276.083C134.792 288.891 155.526 288.891 168.337 276.083C173.122 271.299 176.157 265.332 177.34 259.159C184.543 261.834 192.055 263.171 199.515 263.171C216.133 263.171 232.545 256.741 244.739 244.55C262.386 226.906 267.994 200.415 259.402 177.215C265.524 175.929 271.441 172.946 276.225 168.162Z" fill="white"/>
</svg>
